<?xml version="1.0" encoding="utf-8"?>
<!-- Generator: Adobe Illustrator 26.3.1, SVG Export Plug-In . SVG Version: 6.00 Build 0)  -->
<svg version="1.1" id="Layer_1" xmlns="http://www.w3.org/2000/svg" xmlns:xlink="http://www.w3.org/1999/xlink" x="0px" y="0px"
	 viewBox="0 0 256 256" style="enable-background:new 0 0 256 256;" xml:space="preserve">
<style type="text/css">
	.st0{fill:#212121;}
</style>
<g transform="translate(128 128) scale(1.21 1.21)">
	<g transform="translate(-104.85 -104.85000000000001) scale(2.33 2.33)">
		<path class="st0" d="M84.1,90H59.6c-0.6,0-1-0.4-1-1V54.9c0-0.6,0.4-1,1-1h10.6l1.5-11.3h-12c-0.6,0-1-0.4-1-1v-8.5
			c0-3.7,0.9-7.5,7.6-7.5l6,0v-10c-1.8-0.2-5.3-0.4-9.2-0.4c-10.1,0-16.1,6.2-16.1,16.6v9.8c0,0.6-0.4,1-1,1H35.4v11.3h10.5
			c0.6,0,1,0.4,1,1V89c0,0.6-0.4,1-1,1h-40C2.6,90,0,87.4,0,84.1V5.9C0,2.6,2.6,0,5.9,0h78.3C87.4,0,90,2.6,90,5.9v78.3
			C90,87.4,87.4,90,84.1,90z M60.6,88h23.6c2.1,0,3.9-1.7,3.9-3.9V5.9C88,3.7,86.3,2,84.1,2H5.9C3.7,2,2,3.7,2,5.9v78.3
			C2,86.3,3.7,88,5.9,88h39V55.9H34.4c-0.6,0-1-0.4-1-1V41.6c0-0.6,0.4-1,1-1h10.5v-8.8c0-11.4,6.9-18.6,18.1-18.6
			c4.8,0,9.1,0.4,10.4,0.5c0.5,0.1,0.9,0.5,0.9,1v11.9c0,0.6-0.4,1-1,1l-7,0c-4.7,0-5.6,1.9-5.6,5.5v7.5h12.2c0.3,0,0.6,0.1,0.8,0.3
			s0.3,0.5,0.2,0.8L72,55c-0.1,0.5-0.5,0.9-1,0.9H60.6V88z"/>
	</g>
</g>
</svg>
