<?xml version="1.0" encoding="utf-8"?>
<!-- Generator: Adobe Illustrator 26.3.1, SVG Export Plug-In . SVG Version: 6.00 Build 0)  -->
<svg version="1.1" id="Flat" xmlns="http://www.w3.org/2000/svg" xmlns:xlink="http://www.w3.org/1999/xlink" x="0px" y="0px"
	 viewBox="0 0 256 256" style="enable-background:new 0 0 256 256;" xml:space="preserve">
<style type="text/css">
	.st0{fill:#212121;}
</style>
<path class="st0" d="M128,84c-24.3,0-44,19.7-44,44s19.7,44,44,44s44-19.7,44-44C172,103.7,152.3,84,128,84z M128,164
	c-19.9,0-36-16.1-36-36s16.1-36,36-36s36,16.1,36,36C164,147.9,147.9,164,128,164z M172,32H84c-28.7,0-52,23.3-52,52v88
	c0,28.7,23.3,52,52,52h88c28.7,0,52-23.3,52-52V84C224,55.3,200.7,32,172,32z M216,172c0,24.3-19.7,44-44,44H84
	c-24.3,0-44-19.7-44-44V84c0-24.3,19.7-44,44-44h88c24.3,0,44,19.7,44,44V172z M188,76c0,4.4-3.6,8-8,8s-8-3.6-8-8s3.6-8,8-8
	C184.4,68,188,71.6,188,76z"/>
</svg>
